<svg xmlns="http://www.w3.org/2000/svg" viewBox="0 0 124.09 63.77">
  <path d="M4.29 0L17.23 0 17.23-12.29 21.84-12.29C35.36-12.29 40.5-16.38 40.5-29.05 40.5-40.69 36.08-45.11 21.84-45.11L4.29-45.11ZM17.23-22.55L17.23-35.16 19.96-35.16C25.22-35.16 27.3-33.73 27.3-28.73 27.3-23.98 25.35-22.55 19.96-22.55ZM52.72-38.74C58.44-38.74 59.41-39.33 59.41-45.05 59.41-50.7 58.44-51.16 52.72-51.16 47.06-51.16 46.02-50.7 46.02-45.05 46.02-39.33 47.06-38.74 52.72-38.74ZM46.54 0L58.89 0 58.89-35.1 46.54-35.1ZM86.84 0.65C100.3 0.65 108.09-3.97 108.09-22.55 108.09-41.08 100.3-45.76 86.84-45.76 73.45-45.76 65.59-41.08 65.59-22.55 65.59-3.97 73.45 0.65 86.84 0.65ZM86.84-10.01C80.67-10.01 79.23-12.87 79.23-22.55 79.23-32.37 80.67-35.3 86.84-35.3 93.02-35.3 94.51-32.37 94.51-22.55 94.51-12.87 93.02-10.01 86.84-10.01ZM110.5 12.61C121.09 12.61 128.38 7.35 128.38-4.88L128.38-45.11 115.51-45.11 115.51-5.33C115.51-0.13 114.34 2.79 109.07 2.79 108.03 2.79 106.41 2.73 104.91 2.47L104.91 12.22C106.67 12.48 108.75 12.61 110.5 12.61Z" transform="translate(-4.29, 51.16)"></path>
</svg>